PathFileType	4	(x/y/z)	S01_M20_T14.trc
DataRate	CameraRate	NumFrames	NumMarkers	Units	OrigDataRate	OrigDataStartFrame	OrigNumFrames
240	240	6	51	mm	240	1	485
Frame#	Time	Sternum			R.Acromium			L.Acromium			Top.Head			R.ASIS			L.ASIS			R.PSIS			L.PSIS			R.Great.Tro			L.Great.Tro			R.Iliac.Crest			L.Iliac.Crest			V.Sacral			R.Thigh.Upper.Post			R.Thigh.Lower.Ant			R.Thigh.Lower.Post			R.Thigh.Upper.Ant			R.Knee.Lat			R.Knee.Med			R.Shank.Upper.Post			R.Shank.Lower.Ant			R.Shank.Lower.Post			R.Shank.Upper.Ant			R.Ankle.Lat			R.Ankle.Med			R.Heel.Upper			R.Heel.Med			R.Heel.Lat			R.Toe.Lat			R.Toe.Med			R.Toe.Tip			L.Thigh.Upper.Post			L.Thigh.Lower.Ant			L.Thigh.Lower.Post			L.Thigh.Upper.Ant			L.Knee.Lat			L.Knee.Med			L.Shank.Upper.Post			L.Shank.Lower.Ant			L.Shank.Lower.Post			L.Shank.Upper.Ant			L.Ankle.Lat			L.Ankle.Med			L.Heel.Upper			L.Heel.Med			L.Heel.Lat			L.Toe.Lat			L.Toe.Med			L.Toe.Tip			Cervical.Spine			Back			
		X1	Y1	Z1	X2	Y2	Z2	X3	Y3	Z3	X4	Y4	Z4	X5	Y5	Z5	X6	Y6	Z6	X7	Y7	Z7	X8	Y8	Z8	X9	Y9	Z9	X10	Y10	Z10	X11	Y11	Z11	X12	Y12	Z12	X13	Y13	Z13	X14	Y14	Z14	X15	Y15	Z15	X16	Y16	Z16	X17	Y17	Z17	X18	Y18	Z18	X19	Y19	Z19	X20	Y20	Z20	X21	Y21	Z21	X22	Y22	Z22	X23	Y23	Z23	X24	Y24	Z24	X25	Y25	Z25	X26	Y26	Z26	X27	Y27	Z27	X28	Y28	Z28	X29	Y29	Z29	X30	Y30	Z30	X31	Y31	Z31	X32	Y32	Z32	X33	Y33	Z33	X34	Y34	Z34	X35	Y35	Z35	X36	Y36	Z36	X37	Y37	Z37	X38	Y38	Z38	X39	Y39	Z39	X40	Y40	Z40	X41	Y41	Z41	X42	Y42	Z42	X43	Y43	Z43	X44	Y44	Z44	X45	Y45	Z45	X46	Y46	Z46	X47	Y47	Z47	X48	Y48	Z48	X49	Y49	Z49	X50	Y50	Z50	X51	Y51	Z51	

1	0	NaN	NaN	NaN	-1394.3	1516.6	393.68	-1426.3	1516.7	69.35	-1326.8	1818.8	208.16	NaN	NaN	NaN	NaN	NaN	NaN	-1588.9	1049.2	303.89	-1583.8	1044.5	200.56	-1439.5	946.53	483.13	-1433.1	961.53	58.303	-1435	1108	461.71	-1450.2	1079.1	58.996	-1598.2	1010.4	249.45	-1472.4	642.78	478.43	-1399.7	565.43	471.38	-1471.1	552.22	468.23	-1397.8	656.31	479.57	-1466.1	489.72	470.96	-1434.7	478.7	325.53	-1612.2	427.42	481.66	-1640.9	326.89	442.26	-1668.7	389.36	467.23	-1584.1	370.35	461.79	-1838.7	276.29	426.15	-1799.5	248.45	335.66	-1890.4	316.43	360.06	-1901.8	289.26	328.85	-1914.8	293.89	390.6	NaN	NaN	NaN	-1803.7	99.832	343.31	NaN	NaN	NaN	-1367.2	677.68	88.849	-1263.2	638.42	90.529	-1328.8	596.95	109.63	-1311.1	718.84	68.851	-1250.2	535.6	104.31	-1236.3	548.44	244.08	-1283.3	394	84.646	-1210.4	311.62	110.75	-1272.9	314.25	84.453	-1218.4	388.14	103.09	-1265.8	102.9	119.75	-1242	116.13	219.96	-1336.1	72.312	166.97	-1325	48.869	200.44	-1327.7	47.135	138.59	-1115.4	42.754	108.06	-1092	52.833	229.58	-1027.9	63.746	178.63	-1496.4	1577.5	237.27	-1596.8	1269	273.25
2	0.0041667	NaN	NaN	NaN	-1390.4	1517.7	393.16	-1421.6	1517.6	68.698	-1321.9	1819.6	207.22	NaN	NaN	NaN	NaN	NaN	NaN	-1584.6	1050.1	302.82	-1579.4	1045.6	199.49	-1436.4	947.95	483.02	-1428.7	962.11	57.932	-1431.6	1108.9	461.49	-1445.1	1079.7	58.209	-1594	1011.4	248.33	-1465.3	643.83	478.31	-1391.9	567.03	471.65	-1463.3	553.33	468.24	-1390.8	657.9	479.67	-1457.9	491.25	471.25	-1425.9	479.92	325.62	-1603.7	429.16	481.28	-1632	328.42	442.1	-1660.3	391.08	466.78	-1575.7	372.01	461.77	-1829.9	278.09	425.42	-1790.8	249.59	335.32	-1881.5	317.67	358.83	-1893	290.16	327.91	-1906.1	295.42	389.53	NaN	NaN	NaN	-1794.6	101.02	344.24	NaN	NaN	NaN	-1364.1	678.28	88.628	-1260.3	638.57	90.419	-1326.1	597.37	109.43	-1307.8	719.19	68.701	-1248	535.6	104.18	-1234	548.35	243.94	-1281.7	394.06	84.496	-1209.2	311.45	110.74	-1271.5	314.53	84.71	-1216.9	387.95	103.03	-1265.7	102.98	119.8	-1241.8	116.14	220	-1336	72.395	166.95	-1324.9	48.947	200.43	-1327.6	47.227	138.58	-1115.3	42.637	108.11	-1092	52.591	229.64	-1027.8	63.414	178.72	-1492	1578.6	236.47	-1592.6	1270.1	272.37
3	0.0083333	NaN	NaN	NaN	-1386.3	1518.9	392.63	-1416.7	1518.5	68.029	-1316.7	1820.4	206.27	NaN	NaN	NaN	NaN	NaN	NaN	-1580.1	1051.1	301.72	-1574.8	1046.7	198.39	-1433.2	949.44	482.9	-1424.1	962.73	57.549	-1428	1109.9	461.26	-1439.8	1080.2	57.415	-1589.7	1012.6	247.19	-1457.8	644.94	478.19	-1383.7	568.73	471.93	-1455.1	554.5	468.25	-1383.5	659.59	479.77	-1449.5	492.85	471.55	-1416.7	481.22	325.72	-1594.9	430.93	480.89	-1622.8	329.97	441.94	-1651.5	392.84	466.33	-1566.9	373.72	461.74	-1820.6	279.83	424.67	-1781.6	250.7	334.97	-1872.3	318.86	357.59	-1883.8	291	326.95	-1897.1	296.9	388.45	NaN	NaN	NaN	-1785.1	102.18	345.16	NaN	NaN	NaN	-1361	678.91	88.39	-1257.3	638.71	90.295	-1323.3	597.81	109.22	-1304.4	719.56	68.537	-1245.6	535.6	104.03	-1231.8	548.25	243.79	-1280	394.13	84.334	-1207.9	311.27	110.72	-1270	314.81	84.945	-1215.3	387.75	102.95	-1265.6	103.08	119.85	-1241.7	116.15	220.03	-1335.9	72.486	166.93	-1324.8	49.029	200.43	-1327.5	47.322	138.57	-1115.3	42.517	108.15	-1091.9	52.345	229.69	-1027.7	63.078	178.8	-1487.4	1579.7	235.64	-1588.1	1271.2	271.45
4	0.0125	NaN	NaN	NaN	-1382	1520.1	392.08	-1411.7	1519.5	67.348	-1311.5	1821.3	205.3	NaN	NaN	NaN	NaN	NaN	NaN	-1575.4	1052.1	300.62	-1570.1	1047.9	197.29	-1429.8	950.98	482.78	-1419.3	963.39	57.159	-1424.2	1110.9	461.01	-1434.3	1080.9	56.628	-1585.2	1013.7	246.04	-1450.2	646.12	478.07	-1375.3	570.5	472.22	-1446.7	555.73	468.26	-1375.9	661.34	479.89	-1440.8	494.54	471.86	-1407.3	482.6	325.82	-1585.7	432.72	480.49	-1613.2	331.54	441.79	-1642.3	394.59	465.87	-1557.8	375.45	461.72	-1810.9	281.5	423.92	-1772.1	251.77	334.61	-1862.8	319.95	356.36	-1874.3	291.76	325.98	-1887.7	298.27	387.37	NaN	NaN	NaN	-1775.2	103.3	346.05	NaN	NaN	NaN	-1357.7	679.55	88.135	-1254.2	638.85	90.156	-1320.5	598.26	108.99	-1300.9	719.93	68.359	-1243.3	535.6	103.86	-1229.4	548.15	243.61	-1278.3	394.19	84.159	-1206.6	311.08	110.69	-1268.6	315.06	85.15	-1213.7	387.55	102.86	-1265.5	103.18	119.9	-1241.5	116.17	220.06	-1335.8	72.587	166.92	-1324.8	49.115	200.42	-1327.4	47.418	138.56	-1115.2	42.397	108.18	-1091.8	52.1	229.74	-1027.6	62.742	178.88	-1482.6	1580.8	234.79	-1583.6	1272.3	270.5
5	0.016667	NaN	NaN	NaN	-1377.7	1521.3	391.52	-1406.5	1520.5	66.662	-1306.1	1822.2	204.35	NaN	NaN	NaN	NaN	NaN	NaN	-1570.7	1053.2	299.51	-1565.3	1049.2	196.19	-1426.3	952.57	482.64	-1414.5	964.1	56.765	-1420.4	1112	460.74	-1428.6	1081.6	55.857	-1580.7	1014.9	244.9	-1442.3	647.35	477.96	-1366.8	572.34	472.51	-1438	557.03	468.27	-1368.2	663.17	480.02	-1431.9	496.29	472.18	-1397.6	484.06	325.94	-1576.3	434.52	480.07	-1603.3	333.1	441.64	-1633	396.32	465.4	-1548.5	377.2	461.7	-1801	283.04	423.17	-1762.2	252.76	334.24	-1853	320.92	355.15	-1864.5	292.4	325.02	-1878	299.5	386.31	NaN	NaN	NaN	-1764.8	104.35	346.88	NaN	NaN	NaN	-1354.4	680.22	87.863	-1251.1	638.99	89.999	-1317.6	598.73	108.73	-1297.4	720.31	68.167	-1240.9	535.59	103.68	-1227.1	548.03	243.42	-1276.6	394.25	83.972	-1205.4	310.89	110.64	-1267.1	315.3	85.319	-1212.1	387.34	102.74	-1265.4	103.28	119.94	-1241.3	116.19	220.08	-1335.8	72.697	166.9	-1324.7	49.204	200.42	-1327.3	47.514	138.54	-1115.1	42.277	108.22	-1091.7	51.859	229.79	-1027.5	62.41	178.96	-1477.8	1582	233.94	-1578.9	1273.5	269.52
6	0.020833	NaN	NaN	NaN	-1373.2	1522.6	390.96	-1401.2	1521.6	65.976	-1300.6	1823.1	203.41	NaN	NaN	NaN	NaN	NaN	NaN	-1565.9	1054.3	298.42	-1560.3	1050.4	195.1	-1422.6	954.2	482.51	-1409.5	964.84	56.369	-1416.4	1113.2	460.44	-1422.9	1082.3	55.114	-1576	1016.1	243.78	-1434.3	648.63	477.85	-1358	574.26	472.81	-1429.2	558.39	468.29	-1360.4	665.06	480.17	-1422.9	498.11	472.5	-1387.7	485.59	326.06	-1566.7	436.3	479.66	-1593.2	334.64	441.5	-1623.4	398.01	464.94	-1538.8	378.95	461.69	-1790.7	284.42	422.44	-1752	253.67	333.86	-1842.9	321.73	353.98	-1854.3	292.9	324.09	-1868.1	300.55	385.29	NaN	NaN	NaN	-1754.1	105.31	347.65	NaN	NaN	NaN	-1351.1	680.9	87.573	-1248	639.13	89.825	-1314.8	599.21	108.45	-1293.8	720.7	67.96	-1238.5	535.59	103.47	-1224.7	547.91	243.2	-1274.9	394.3	83.774	-1204.1	310.69	110.59	-1265.7	315.5	85.445	-1210.4	387.13	102.61	-1265.3	103.39	119.98	-1241.1	116.22	220.1	-1335.7	72.815	166.88	-1324.6	49.295	200.41	-1327.2	47.61	138.53	-1115.1	42.158	108.25	-1091.7	51.623	229.83	-1027.4	62.086	179.03	-1472.8	1583.2	233.08	-1574.1	1274.7	268.52
